<svg width="48" height="48" viewBox="0 0 48 48" fill="none" xmlns="http://www.w3.org/2000/svg">
<path d="M41.3737 19.9709L29.7897 16.0478C29.6015 15.9841 29.3985 15.9841 29.2102 16.0478L17.6263 19.9709C17.2522 20.0975 17 20.4532 17 20.8537V35.1188C17 42.1407 28.6306 47.5119 29.1257 47.737C29.2448 47.7912 29.3723 47.8182 29.5 47.8182C29.6277 47.8182 29.7552 47.7912 29.8743 47.737C30.3694 47.5118 42 42.1407 42 35.1188V20.8537C42 20.4531 41.7478 20.0974 41.3737 19.9709Z" fill="white"/>
<path d="M41.3737 19.9444L29.7896 16.0475C29.684 16.0119 29.5738 15.9985 29.464 16.0029V47.6039C29.476 47.6043 29.4879 47.6058 29.4998 47.6058C29.6275 47.6058 29.755 47.579 29.8742 47.5251C30.3693 47.3014 41.9998 41.9662 41.9998 34.9913V20.8212C41.9999 20.4233 41.7477 20.07 41.3737 19.9444Z" fill="white"/>
<path d="M39.8369 20.7425L29.7609 17.2005C29.5179 17.115 29.255 17.115 29.0119 17.2005L18.936 20.7425C18.4522 20.9124 18.1261 21.3898 18.1261 21.9273V34.807C18.1261 37.664 19.986 40.5323 23.654 43.3324C26.2421 45.3081 28.795 46.5221 28.9024 46.5728C29.0565 46.6456 29.2214 46.6818 29.3865 46.6818C29.5516 46.6818 29.7164 46.6456 29.8705 46.5728C29.9778 46.5222 32.5308 45.3081 35.119 43.3324C38.787 40.5323 40.6468 37.664 40.6468 34.807V21.9273C40.6468 21.3898 40.3207 20.9124 39.8369 20.7425Z" fill="#1E242C"/>
<path d="M40.0498 20.74L29.923 17.1977C29.786 17.1497 29.6427 17.1315 29.5 17.1374V46.6792C29.5156 46.6798 29.5311 46.6818 29.5466 46.6818C29.7125 46.6818 29.8782 46.6456 30.0331 46.5728C30.1409 46.5222 32.7068 45.3079 35.308 43.3321C38.9945 40.5317 40.8636 37.6631 40.8636 34.8059V21.9249C40.8638 21.3874 40.536 20.9099 40.0498 20.74Z" fill="#1E242C"/>
<path d="M24.6676 25.5325L21.9829 29.6273H26.4772L27.5511 25.5325H24.6676Z" fill="white"/>
<path d="M34.3324 25.5325H31.4489L32.5227 29.6273H37.017L34.3324 25.5325Z" fill="white"/>
<path d="M27.551 25.5325L26.4772 29.6273H32.5226L31.4488 25.5325H27.551Z" fill="white"/>
<path d="M21.9829 29.6273L29.5 38.7403L26.4772 29.6273H21.9829Z" fill="white"/>
<path d="M32.5227 29.6273L29.5 38.7403L37.017 29.6273H32.5227Z" fill="white"/>
<path d="M29.4999 29.6273H26.4772L29.4999 38.7403L32.5226 29.6273H29.4999Z" fill="white"/>
<path d="M5 15.6995C5 15.4522 5.12367 15.3285 5.371 15.3285L11.251 15.3285C11.4937 15.3285 11.615 15.4522 11.615 15.6995C11.615 15.9422 11.4937 16.0635 11.251 16.0635H10.579C11.2697 16.5069 11.615 17.3095 11.615 18.4715V18.8635C11.615 19.7362 11.412 20.3732 11.006 20.7745C10.6047 21.1805 9.96767 21.3835 9.095 21.3835H5.371C5.12367 21.3835 5 21.2622 5 21.0195C5 20.7722 5.12367 20.6485 5.371 20.6485H9.095C9.76233 20.6485 10.2267 20.5155 10.488 20.2495C10.7493 19.9882 10.88 19.5262 10.88 18.8635V18.4715C10.88 17.7482 10.7657 17.1789 10.537 16.7635C10.3083 16.3482 9.95133 16.1149 9.466 16.0635H5.371C5.12367 16.0635 5 15.9422 5 15.6995ZM12.889 24.0835C12.889 23.7615 13.0547 23.6005 13.386 23.6005H13.701C14.023 23.6005 14.184 23.7615 14.184 24.0835V24.3985C14.184 24.7111 14.023 24.8675 13.701 24.8675H13.386C13.0547 24.8675 12.889 24.7111 12.889 24.3985V24.0835ZM5 24.2445C5 23.9971 5.12367 23.8735 5.371 23.8735H11.251C11.4937 23.8735 11.615 23.9971 11.615 24.2445C11.615 24.4871 11.4937 24.6085 11.251 24.6085H5.371C5.12367 24.6085 5 24.4871 5 24.2445ZM2.2 28.8331C2.2 28.2824 2.31433 27.8624 2.543 27.5731C2.767 27.2837 3.12167 27.1134 3.607 27.0621C3.72833 27.0481 3.824 27.0737 3.894 27.1391C3.964 27.2044 3.999 27.2954 3.999 27.4121C3.999 27.5287 3.96867 27.6174 3.908 27.6781C3.84733 27.7387 3.75633 27.7784 3.635 27.7971C3.36433 27.8297 3.18 27.9254 3.082 28.0841C2.984 28.2427 2.935 28.4924 2.935 28.8331V31.4371C2.935 31.8477 3.00967 32.1254 3.159 32.2701C3.30833 32.4194 3.58833 32.4941 3.999 32.4941H6.001C5.67433 32.2794 5.42467 31.9761 5.252 31.5841C5.084 31.1921 5 30.6951 5 30.0931V29.5611C5 28.6884 5.20067 28.0491 5.602 27.6431C6.008 27.2371 6.645 27.0341 7.513 27.0341H9.095C9.977 27.0341 10.6163 27.2347 11.013 27.6361C11.4143 28.0421 11.615 28.6837 11.615 29.5611V30.7091C11.615 31.1664 11.5543 31.5374 11.433 31.8221C11.3117 32.1067 11.1227 32.3307 10.866 32.4941H11.251C11.4937 32.4941 11.615 32.6177 11.615 32.8651C11.615 33.1077 11.4937 33.2291 11.251 33.2291H3.999C3.383 33.2291 2.93033 33.0844 2.641 32.7951C2.347 32.5057 2.2 32.0531 2.2 31.4371V28.8331ZM5.735 29.5611V30.0931C5.735 30.8211 5.84933 31.4021 6.078 31.8361C6.30667 32.2747 6.65433 32.4941 7.121 32.4941H9.459C9.98633 32.4941 10.355 32.3471 10.565 32.0531C10.775 31.7591 10.88 31.3111 10.88 30.7091V29.5611C10.88 28.8937 10.7493 28.4271 10.488 28.1611C10.2313 27.8997 9.767 27.7691 9.095 27.7691H7.513C6.855 27.7691 6.393 27.8997 6.127 28.1611C5.86567 28.4271 5.735 28.8937 5.735 29.5611ZM5 36.098C5 35.8506 5.12367 35.727 5.371 35.727H14.345C14.5877 35.727 14.709 35.8506 14.709 36.098C14.709 36.3406 14.5877 36.462 14.345 36.462H10.579C11.2697 36.9053 11.615 37.708 11.615 38.87V39.262C11.615 40.1346 11.412 40.7716 11.006 41.173C10.6047 41.579 9.96767 41.782 9.095 41.782H5.371C5.12367 41.782 5 41.6606 5 41.418C5 41.1706 5.12367 41.047 5.371 41.047H9.095C9.76233 41.047 10.2267 40.914 10.488 40.648C10.7493 40.3866 10.88 39.9246 10.88 39.262V38.87C10.88 38.1466 10.7657 37.5773 10.537 37.162C10.3083 36.7466 9.95133 36.5133 9.466 36.462H5.371C5.12367 36.462 5 36.3406 5 36.098ZM5 46.9739C5 46.1152 5.19833 45.4876 5.595 45.0909C5.99167 44.6942 6.617 44.4959 7.471 44.4959H10.88V43.6629C10.88 43.4156 11.0037 43.2919 11.251 43.2919C11.4937 43.2919 11.615 43.4156 11.615 43.6629V44.4959H13.12C13.3673 44.4959 13.491 44.6172 13.491 44.8599C13.491 45.1072 13.3673 45.2309 13.12 45.2309H11.615V46.9879C11.615 47.2306 11.4937 47.3519 11.251 47.3519C11.0037 47.3519 10.88 47.2306 10.88 46.9879V45.2309H7.471C6.81767 45.2309 6.365 45.3569 6.113 45.6089C5.861 45.8656 5.735 46.3206 5.735 46.9739C5.735 47.1092 5.70467 47.2049 5.644 47.2609C5.58333 47.3216 5.49233 47.3519 5.371 47.3519C5.12367 47.3519 5 47.2259 5 46.9739Z" fill="white"/>
<path d="M5.16293 13C4.84493 13 4.68593 12.841 4.68593 12.523V1.876C4.68593 1.558 4.84493 1.399 5.16293 1.399C5.47493 1.399 5.63093 1.558 5.63093 1.876V7.051L10.9769 1.57C11.1929 1.348 11.4119 1.345 11.6339 1.561C11.8679 1.777 11.8739 2.002 11.6519 2.236L7.61993 6.367L12.3629 12.253C12.5609 12.499 12.5399 12.721 12.2999 12.919C12.0539 13.117 11.8349 13.096 11.6429 12.856L6.96293 7.051L5.63093 8.41V12.523C5.63093 12.841 5.47493 13 5.16293 13ZM17.0611 13C15.9391 13 15.1171 12.742 14.5951 12.226C14.0731 11.704 13.8121 10.885 13.8121 9.769V7.735C13.8121 6.601 14.0731 5.776 14.5951 5.26C15.1171 4.738 15.9391 4.483 17.0611 4.495H18.5371C19.6591 4.495 20.4781 4.756 20.9941 5.278C21.5161 5.794 21.7771 6.613 21.7771 7.735V9.751C21.7771 10.873 21.5161 11.695 20.9941 12.217C20.4781 12.739 19.6591 13 18.5371 13H17.0611ZM14.7571 9.769C14.7571 10.615 14.9251 11.209 15.2611 11.551C15.6031 11.887 16.2031 12.055 17.0611 12.055H18.5371C19.3951 12.055 19.9921 11.887 20.3281 11.551C20.6641 11.209 20.8321 10.609 20.8321 9.751V7.735C20.8321 6.877 20.6641 6.28 20.3281 5.944C19.9921 5.608 19.3951 5.44 18.5371 5.44H17.0611C16.4851 5.434 16.0291 5.503 15.6931 5.647C15.3571 5.791 15.1171 6.031 14.9731 6.367C14.8291 6.703 14.7571 7.159 14.7571 7.735V9.769ZM27.9068 13C26.7848 13 25.9628 12.739 25.4408 12.217C24.9188 11.695 24.6578 10.873 24.6578 9.751V7.735C24.6578 6.613 24.9188 5.794 25.4408 5.278C25.9628 4.756 26.7848 4.495 27.9068 4.495H31.6778V0.985C31.6778 0.672999 31.8368 0.516999 32.1548 0.516999C32.4668 0.516999 32.6228 0.672999 32.6228 0.985V12.523C32.6228 12.841 32.4668 13 32.1548 13C31.8368 13 31.6778 12.841 31.6778 12.523V11.749C31.4198 12.163 31.0418 12.475 30.5438 12.685C30.0458 12.895 29.3948 13 28.5908 13H27.9068ZM27.9068 12.055H28.5908C29.5268 12.055 30.2738 11.908 30.8318 11.614C31.3958 11.314 31.6778 10.867 31.6778 10.273V5.44H27.9068C27.0488 5.44 26.4488 5.611 26.1068 5.953C25.7708 6.289 25.6028 6.883 25.6028 7.735V9.751C25.6028 10.609 25.7708 11.209 26.1068 11.551C26.4488 11.887 27.0488 12.055 27.9068 12.055ZM36.5364 9.112V9.769C36.5364 10.615 36.7044 11.209 37.0404 11.551C37.3824 11.887 37.9824 12.055 38.8404 12.055H40.3164C41.0724 12.055 41.6214 11.959 41.9634 11.767C42.3114 11.569 42.5184 11.23 42.5844 10.75C42.6084 10.6 42.6564 10.486 42.7284 10.408C42.8064 10.33 42.9234 10.291 43.0794 10.291C43.2354 10.291 43.3524 10.336 43.4304 10.426C43.5144 10.51 43.5474 10.63 43.5294 10.786C43.4514 11.542 43.1484 12.1 42.6204 12.46C42.0924 12.82 41.3244 13 40.3164 13H38.8404C37.7184 13 36.8964 12.742 36.3744 12.226C35.8524 11.704 35.5914 10.885 35.5914 9.769V7.735C35.5914 6.601 35.8524 5.776 36.3744 5.26C36.8964 4.738 37.7184 4.483 38.8404 4.495H40.3164C41.4384 4.495 42.2574 4.756 42.7734 5.278C43.2954 5.794 43.5564 6.613 43.5564 7.735V8.635C43.5564 8.953 43.4004 9.112 43.0884 9.112H36.5364ZM38.8404 5.44C37.9824 5.428 37.3824 5.593 37.0404 5.935C36.7044 6.271 36.5364 6.871 36.5364 7.735V8.167H42.6114V7.735C42.6114 6.877 42.4434 6.28 42.1074 5.944C41.7714 5.608 41.1744 5.44 40.3164 5.44H38.8404Z" fill="white"/>
</svg>
