<svg width="360" height="262" viewBox="0 0 360 262" fill="none" xmlns="http://www.w3.org/2000/svg">
<g clip-path="url(#clip0_83_93)">
<path d="M209.699 46.1575C216.446 46.1575 221.916 40.6879 221.916 33.9408C221.916 27.1938 216.446 21.7242 209.699 21.7242C202.952 21.7242 197.483 27.1938 197.483 33.9408C197.483 40.6879 202.952 46.1575 209.699 46.1575Z" fill="#F2F2F2"/>
<path d="M304.467 227.466C322.626 213.635 331.299 190.394 325.869 168.223C325.735 167.672 325.592 167.122 325.442 166.574C321.843 153.414 312.937 140.906 299.957 136.701C289.059 133.17 277.163 135.885 265.793 134.481C243.474 131.725 226.17 113.666 213.995 94.7579C201.82 75.8499 192.462 54.6852 176.284 39.0644C149.616 13.3163 106.115 7.77274 73.0511 24.5328C39.9873 41.293 18.9259 78.4767 19.8241 115.535C20.7224 152.593 42.7222 188.024 74.6715 206.822C86.4083 213.727 99.9831 218.619 113.493 216.907C125.215 215.422 135.866 209.124 147.533 207.254C165.876 204.314 184.103 212.607 199.968 222.272C215.834 231.936 231.158 243.392 249.187 247.872C266.694 252.223 288.382 239.718 304.467 227.466Z" fill="#F2F2F2"/>
<path d="M278.378 25.311C277.98 25.0456 277.577 24.794 277.179 24.5378C265.673 17.1786 253.339 11.2001 240.434 6.72581L237.442 48.0049H218.473V0.700033C217.278 0.452962 216.075 0.219618 214.872 0V48.0049H192.329C179.919 48.0049 168.017 43.075 159.242 34.2997C150.466 25.5245 145.536 13.6226 145.536 1.21253V1.21249C144.329 1.47328 143.13 1.75238 141.931 2.04978V48.0049H123.57L120.72 8.6429C107.458 13.729 94.8674 20.4175 83.2289 28.5595C83.0276 28.6968 82.8262 28.8386 82.6295 28.9759C81.6183 29.6851 80.6209 30.408 79.6281 31.14V188.62H133.741L132.785 175.374L127.523 102.649H233.484L228.223 175.374L227.266 188.62H280.78V26.9032C279.984 26.3634 279.183 25.8326 278.378 25.311ZM141.931 90.6383H126.654L123.831 51.6103H141.931V90.6383ZM214.872 90.6383H189.213V89.865C189.213 89.4933 189.14 89.1253 188.997 88.7819C188.855 88.4385 188.646 88.1266 188.383 87.864C188.12 87.6014 187.808 87.3932 187.464 87.2513C187.121 87.1095 186.753 87.0368 186.381 87.0374H175.226C174.855 87.0373 174.487 87.1103 174.144 87.2524C173.801 87.3944 173.489 87.6027 173.226 87.8653C172.964 88.1279 172.755 88.4397 172.613 88.7828C172.471 89.1259 172.398 89.4937 172.398 89.865V90.6383H145.536V51.6103H214.872V90.6383ZM218.473 90.6383V51.6103H237.181L234.358 90.6383H218.473Z" fill="#3F3D56"/>
<path d="M0 198.705C3.97475 203.414 8.27389 207.84 12.866 211.95L347.134 212.408C351.726 208.298 356.025 203.872 360 199.162L0 198.705Z" fill="#3F3D56"/>
<path d="M226.678 156.291V195.504C226.678 196.004 226.877 196.483 227.23 196.836C227.584 197.189 228.063 197.388 228.563 197.388H286.672C287.172 197.388 287.651 197.189 288.004 196.836C288.358 196.483 288.556 196.004 288.557 195.504V156.291C288.555 155.792 288.356 155.313 288.003 154.96C287.65 154.608 287.171 154.409 286.672 154.408H228.563C228.063 154.409 227.585 154.608 227.231 154.96C226.878 155.313 226.679 155.792 226.678 156.291V156.291Z" fill="#3F3D56"/>
<path d="M228.041 156.779V195.02C228.042 195.287 228.148 195.543 228.337 195.732C228.526 195.921 228.781 196.027 229.048 196.027H286.188C286.455 196.027 286.711 195.921 286.9 195.732C287.089 195.543 287.195 195.287 287.196 195.02V156.779C287.196 156.512 287.089 156.255 286.901 156.066C286.712 155.877 286.456 155.77 286.188 155.77H229.048C228.781 155.77 228.525 155.877 228.336 156.066C228.147 156.255 228.041 156.512 228.041 156.779V156.779Z" fill="#6C63FF"/>
<path d="M225.463 203.151C225.569 203.285 225.704 203.392 225.858 203.466C226.012 203.54 226.181 203.578 226.352 203.577H288.573C288.744 203.577 288.911 203.538 289.065 203.465C289.219 203.392 289.354 203.285 289.461 203.153C289.568 203.021 289.645 202.867 289.685 202.701C289.725 202.536 289.727 202.364 289.693 202.197L288.727 197.609C288.687 197.422 288.6 197.248 288.476 197.103C288.351 196.957 288.193 196.846 288.014 196.777C287.884 196.727 287.746 196.701 287.607 196.701H227.314C227.175 196.701 227.037 196.727 226.908 196.777C226.729 196.846 226.57 196.957 226.445 197.103C226.321 197.248 226.235 197.422 226.195 197.609L225.229 202.197C225.194 202.363 225.198 202.535 225.238 202.701C225.279 202.866 225.355 203.02 225.463 203.151V203.151Z" fill="#2F2E41"/>
<path d="M285.473 198.677H286.942C287.066 198.677 287.166 198.577 287.166 198.454V197.75C287.166 197.627 287.066 197.527 286.942 197.527H285.473C285.349 197.527 285.249 197.627 285.249 197.75V198.454C285.249 198.577 285.349 198.677 285.473 198.677Z" fill="#3F3D56"/>
<path d="M281.64 198.677H283.109C283.233 198.677 283.333 198.577 283.333 198.454V197.75C283.333 197.627 283.233 197.527 283.109 197.527H281.64C281.516 197.527 281.416 197.627 281.416 197.75V198.454C281.416 198.577 281.516 198.677 281.64 198.677Z" fill="#3F3D56"/>
<path d="M277.807 198.677H279.277C279.4 198.677 279.5 198.577 279.5 198.454V197.75C279.5 197.627 279.4 197.527 279.277 197.527H277.807C277.684 197.527 277.584 197.627 277.584 197.75V198.454C277.584 198.577 277.684 198.677 277.807 198.677Z" fill="#3F3D56"/>
<path d="M273.974 198.677H275.444C275.567 198.677 275.667 198.577 275.667 198.454V197.75C275.667 197.627 275.567 197.527 275.444 197.527H273.974C273.851 197.527 273.751 197.627 273.751 197.75V198.454C273.751 198.577 273.851 198.677 273.974 198.677Z" fill="#3F3D56"/>
<path d="M270.141 198.677H271.611C271.734 198.677 271.834 198.577 271.834 198.454V197.75C271.834 197.627 271.734 197.527 271.611 197.527H270.141C270.018 197.527 269.918 197.627 269.918 197.75V198.454C269.918 198.577 270.018 198.677 270.141 198.677Z" fill="#3F3D56"/>
<path d="M266.309 198.677H267.778C267.902 198.677 268.002 198.577 268.002 198.454V197.75C268.002 197.627 267.902 197.527 267.778 197.527H266.309C266.185 197.527 266.085 197.627 266.085 197.75V198.454C266.085 198.577 266.185 198.677 266.309 198.677Z" fill="#3F3D56"/>
<path d="M262.476 198.677H263.945C264.069 198.677 264.169 198.577 264.169 198.454V197.75C264.169 197.627 264.069 197.527 263.945 197.527H262.476C262.352 197.527 262.252 197.627 262.252 197.75V198.454C262.252 198.577 262.352 198.677 262.476 198.677Z" fill="#3F3D56"/>
<path d="M258.643 198.677H260.113C260.236 198.677 260.336 198.577 260.336 198.454V197.75C260.336 197.627 260.236 197.527 260.113 197.527H258.643C258.52 197.527 258.42 197.627 258.42 197.75V198.454C258.42 198.577 258.52 198.677 258.643 198.677Z" fill="#3F3D56"/>
<path d="M254.81 198.677H256.28C256.403 198.677 256.503 198.577 256.503 198.454V197.75C256.503 197.627 256.403 197.527 256.28 197.527H254.81C254.687 197.527 254.587 197.627 254.587 197.75V198.454C254.587 198.577 254.687 198.677 254.81 198.677Z" fill="#3F3D56"/>
<path d="M250.977 198.677H252.447C252.571 198.677 252.671 198.577 252.671 198.454V197.75C252.671 197.627 252.571 197.527 252.447 197.527H250.977C250.854 197.527 250.754 197.627 250.754 197.75V198.454C250.754 198.577 250.854 198.677 250.977 198.677Z" fill="#3F3D56"/>
<path d="M247.145 198.677H248.614C248.738 198.677 248.838 198.577 248.838 198.454V197.75C248.838 197.627 248.738 197.527 248.614 197.527H247.145C247.021 197.527 246.921 197.627 246.921 197.75V198.454C246.921 198.577 247.021 198.677 247.145 198.677Z" fill="#3F3D56"/>
<path d="M243.312 198.677H244.782C244.905 198.677 245.005 198.577 245.005 198.454V197.75C245.005 197.627 244.905 197.527 244.782 197.527H243.312C243.188 197.527 243.088 197.627 243.088 197.75V198.454C243.088 198.577 243.188 198.677 243.312 198.677Z" fill="#3F3D56"/>
<path d="M239.479 198.677H240.949C241.072 198.677 241.172 198.577 241.172 198.454V197.75C241.172 197.627 241.072 197.527 240.949 197.527H239.479C239.356 197.527 239.256 197.627 239.256 197.75V198.454C239.256 198.577 239.356 198.677 239.479 198.677Z" fill="#3F3D56"/>
<path d="M235.646 198.677H237.116C237.239 198.677 237.339 198.577 237.339 198.454V197.75C237.339 197.627 237.239 197.527 237.116 197.527H235.646C235.523 197.527 235.423 197.627 235.423 197.75V198.454C235.423 198.577 235.523 198.677 235.646 198.677Z" fill="#3F3D56"/>
<path d="M231.814 198.677H233.283C233.407 198.677 233.507 198.577 233.507 198.454V197.75C233.507 197.627 233.407 197.527 233.283 197.527H231.814C231.69 197.527 231.59 197.627 231.59 197.75V198.454C231.59 198.577 231.69 198.677 231.814 198.677Z" fill="#3F3D56"/>
<path d="M227.981 198.677H229.45C229.574 198.677 229.674 198.577 229.674 198.454V197.75C229.674 197.627 229.574 197.527 229.45 197.527H227.981C227.857 197.527 227.757 197.627 227.757 197.75V198.454C227.757 198.577 227.857 198.677 227.981 198.677Z" fill="#3F3D56"/>
<path d="M285.518 200.593H286.988C287.111 200.593 287.211 200.493 287.211 200.37V199.667C287.211 199.543 287.111 199.443 286.988 199.443H285.518C285.395 199.443 285.295 199.543 285.295 199.667V200.37C285.295 200.493 285.395 200.593 285.518 200.593Z" fill="#3F3D56"/>
<path d="M281.685 200.593H283.155C283.278 200.593 283.378 200.493 283.378 200.37V199.667C283.378 199.543 283.278 199.443 283.155 199.443H281.685C281.562 199.443 281.462 199.543 281.462 199.667V200.37C281.462 200.493 281.562 200.593 281.685 200.593Z" fill="#3F3D56"/>
<path d="M277.852 200.593H279.322C279.445 200.593 279.545 200.493 279.545 200.37V199.667C279.545 199.543 279.445 199.443 279.322 199.443H277.852C277.729 199.443 277.629 199.543 277.629 199.667V200.37C277.629 200.493 277.729 200.593 277.852 200.593Z" fill="#3F3D56"/>
<path d="M274.019 200.593H275.489C275.613 200.593 275.713 200.493 275.713 200.37V199.667C275.713 199.543 275.613 199.443 275.489 199.443H274.019C273.896 199.443 273.796 199.543 273.796 199.667V200.37C273.796 200.493 273.896 200.593 274.019 200.593Z" fill="#3F3D56"/>
<path d="M270.187 200.593H271.656C271.78 200.593 271.88 200.493 271.88 200.37V199.667C271.88 199.543 271.78 199.443 271.656 199.443H270.187C270.063 199.443 269.963 199.543 269.963 199.667V200.37C269.963 200.493 270.063 200.593 270.187 200.593Z" fill="#3F3D56"/>
<path d="M266.354 200.593H267.824C267.947 200.593 268.047 200.493 268.047 200.37V199.667C268.047 199.543 267.947 199.443 267.824 199.443H266.354C266.23 199.443 266.13 199.543 266.13 199.667V200.37C266.13 200.493 266.23 200.593 266.354 200.593Z" fill="#3F3D56"/>
<path d="M262.521 200.593H263.991C264.114 200.593 264.214 200.493 264.214 200.37V199.667C264.214 199.543 264.114 199.443 263.991 199.443H262.521C262.398 199.443 262.298 199.543 262.298 199.667V200.37C262.298 200.493 262.398 200.593 262.521 200.593Z" fill="#3F3D56"/>
<path d="M258.688 200.593H260.158C260.281 200.593 260.381 200.493 260.381 200.37V199.667C260.381 199.543 260.281 199.443 260.158 199.443H258.688C258.565 199.443 258.465 199.543 258.465 199.667V200.37C258.465 200.493 258.565 200.593 258.688 200.593Z" fill="#3F3D56"/>
<path d="M254.856 200.593H256.325C256.449 200.593 256.549 200.493 256.549 200.37V199.667C256.549 199.543 256.449 199.443 256.325 199.443H254.856C254.732 199.443 254.632 199.543 254.632 199.667V200.37C254.632 200.493 254.732 200.593 254.856 200.593Z" fill="#3F3D56"/>
<path d="M251.023 200.593H252.492C252.616 200.593 252.716 200.493 252.716 200.37V199.667C252.716 199.543 252.616 199.443 252.492 199.443H251.023C250.899 199.443 250.799 199.543 250.799 199.667V200.37C250.799 200.493 250.899 200.593 251.023 200.593Z" fill="#3F3D56"/>
<path d="M247.19 200.593H248.66C248.783 200.593 248.883 200.493 248.883 200.37V199.667C248.883 199.543 248.783 199.443 248.66 199.443H247.19C247.067 199.443 246.967 199.543 246.967 199.667V200.37C246.967 200.493 247.067 200.593 247.19 200.593Z" fill="#3F3D56"/>
<path d="M243.357 200.593H244.827C244.95 200.593 245.05 200.493 245.05 200.37V199.667C245.05 199.543 244.95 199.443 244.827 199.443H243.357C243.234 199.443 243.134 199.543 243.134 199.667V200.37C243.134 200.493 243.234 200.593 243.357 200.593Z" fill="#3F3D56"/>
<path d="M239.524 200.593H240.994C241.117 200.593 241.217 200.493 241.217 200.37V199.667C241.217 199.543 241.117 199.443 240.994 199.443H239.524C239.401 199.443 239.301 199.543 239.301 199.667V200.37C239.301 200.493 239.401 200.593 239.524 200.593Z" fill="#3F3D56"/>
<path d="M235.692 200.593H237.161C237.285 200.593 237.385 200.493 237.385 200.37V199.667C237.385 199.543 237.285 199.443 237.161 199.443H235.692C235.568 199.443 235.468 199.543 235.468 199.667V200.37C235.468 200.493 235.568 200.593 235.692 200.593Z" fill="#3F3D56"/>
<path d="M231.859 200.593H233.329C233.452 200.593 233.552 200.493 233.552 200.37V199.667C233.552 199.543 233.452 199.443 233.329 199.443H231.859C231.735 199.443 231.635 199.543 231.635 199.667V200.37C231.635 200.493 231.735 200.593 231.859 200.593Z" fill="#3F3D56"/>
<path d="M228.026 200.593H229.496C229.619 200.593 229.719 200.493 229.719 200.37V199.667C229.719 199.543 229.619 199.443 229.496 199.443H228.026C227.903 199.443 227.803 199.543 227.803 199.667V200.37C227.803 200.493 227.903 200.593 228.026 200.593Z" fill="#3F3D56"/>
<path d="M253.706 202.893H268.59C268.713 202.893 268.813 202.793 268.813 202.67V201.966C268.813 201.843 268.713 201.743 268.59 201.743H253.706C253.582 201.743 253.482 201.843 253.482 201.966V202.67C253.482 202.793 253.582 202.893 253.706 202.893Z" fill="#3F3D56"/>
<path d="M237.936 164.136H236.635C236.241 164.136 235.921 164.456 235.921 164.85C235.921 165.245 236.241 165.564 236.635 165.564H237.936C238.331 165.564 238.65 165.245 238.65 164.85C238.65 164.456 238.331 164.136 237.936 164.136Z" fill="white"/>
<path d="M252.817 164.136H251.516C251.121 164.136 250.801 164.456 250.801 164.85C250.801 165.245 251.121 165.564 251.516 165.564H252.817C253.211 165.564 253.531 165.245 253.531 164.85C253.531 164.456 253.211 164.136 252.817 164.136Z" fill="white"/>
<path d="M257.033 164.136H255.732C255.337 164.136 255.017 164.456 255.017 164.85C255.017 165.245 255.337 165.564 255.732 165.564H257.033C257.427 165.564 257.747 165.245 257.747 164.85C257.747 164.456 257.427 164.136 257.033 164.136Z" fill="white"/>
<path d="M248.769 164.017H240.683C240.288 164.017 239.968 164.336 239.968 164.731C239.968 165.125 240.288 165.445 240.683 165.445H248.769C249.164 165.445 249.483 165.125 249.483 164.731C249.483 164.336 249.164 164.017 248.769 164.017Z" fill="white"/>
<path d="M268.61 164.017H260.523C260.129 164.017 259.809 164.336 259.809 164.731C259.809 165.125 260.129 165.445 260.523 165.445H268.61C269.004 165.445 269.324 165.125 269.324 164.731C269.324 164.336 269.004 164.017 268.61 164.017Z" fill="white"/>
<path d="M241.904 167.36H240.603C240.209 167.36 239.889 167.68 239.889 168.074C239.889 168.469 240.209 168.788 240.603 168.788H241.904C242.299 168.788 242.619 168.469 242.619 168.074C242.619 167.68 242.299 167.36 241.904 167.36Z" fill="white"/>
<path d="M256.785 167.36H255.484C255.089 167.36 254.769 167.68 254.769 168.074C254.769 168.469 255.089 168.788 255.484 168.788H256.785C257.179 168.788 257.499 168.469 257.499 168.074C257.499 167.68 257.179 167.36 256.785 167.36Z" fill="white"/>
<path d="M261.001 167.36H259.7C259.305 167.36 258.986 167.68 258.986 168.074C258.986 168.469 259.305 168.788 259.7 168.788H261.001C261.395 168.788 261.715 168.469 261.715 168.074C261.715 167.68 261.395 167.36 261.001 167.36Z" fill="white"/>
<path d="M252.737 167.241H244.651C244.256 167.241 243.937 167.561 243.937 167.955C243.937 168.35 244.256 168.669 244.651 168.669H252.737C253.132 168.669 253.452 168.35 253.452 167.955C253.452 167.561 253.132 167.241 252.737 167.241Z" fill="white"/>
<path d="M272.578 167.241H264.491C264.097 167.241 263.777 167.561 263.777 167.955C263.777 168.35 264.097 168.669 264.491 168.669H272.578C272.972 168.669 273.292 168.35 273.292 167.955C273.292 167.561 272.972 167.241 272.578 167.241Z" fill="white"/>
<path d="M245.872 170.584H244.571C244.177 170.584 243.857 170.904 243.857 171.298C243.857 171.693 244.177 172.013 244.571 172.013H245.872C246.267 172.013 246.587 171.693 246.587 171.298C246.587 170.904 246.267 170.584 245.872 170.584Z" fill="white"/>
<path d="M260.753 170.584H259.452C259.057 170.584 258.738 170.904 258.738 171.298C258.738 171.693 259.057 172.013 259.452 172.013H260.753C261.147 172.013 261.467 171.693 261.467 171.298C261.467 170.904 261.147 170.584 260.753 170.584Z" fill="white"/>
<path d="M264.969 170.584H263.668C263.274 170.584 262.954 170.904 262.954 171.298C262.954 171.693 263.274 172.013 263.668 172.013H264.969C265.364 172.013 265.683 171.693 265.683 171.298C265.683 170.904 265.364 170.584 264.969 170.584Z" fill="white"/>
<path d="M256.705 170.465H248.619C248.224 170.465 247.905 170.785 247.905 171.179C247.905 171.574 248.224 171.893 248.619 171.893H256.705C257.1 171.893 257.42 171.574 257.42 171.179C257.42 170.785 257.1 170.465 256.705 170.465Z" fill="white"/>
<path d="M276.546 170.465H268.46C268.065 170.465 267.745 170.785 267.745 171.179C267.745 171.574 268.065 171.893 268.46 171.893H276.546C276.941 171.893 277.26 171.574 277.26 171.179C277.26 170.785 276.941 170.465 276.546 170.465Z" fill="white"/>
<path d="M249.841 173.808H248.539C248.145 173.808 247.825 174.128 247.825 174.522C247.825 174.917 248.145 175.237 248.539 175.237H249.841C250.235 175.237 250.555 174.917 250.555 174.522C250.555 174.128 250.235 173.808 249.841 173.808Z" fill="white"/>
<path d="M264.721 173.808H263.42C263.025 173.808 262.706 174.128 262.706 174.522C262.706 174.917 263.025 175.237 263.42 175.237H264.721C265.116 175.237 265.435 174.917 265.435 174.522C265.435 174.128 265.116 173.808 264.721 173.808Z" fill="white"/>
<path d="M268.937 173.808H267.636C267.242 173.808 266.922 174.128 266.922 174.522C266.922 174.917 267.242 175.237 267.636 175.237H268.937C269.332 175.237 269.651 174.917 269.651 174.522C269.651 174.128 269.332 173.808 268.937 173.808Z" fill="white"/>
<path d="M260.674 173.689H252.587C252.193 173.689 251.873 174.009 251.873 174.403C251.873 174.798 252.193 175.118 252.587 175.118H260.674C261.068 175.118 261.388 174.798 261.388 174.403C261.388 174.009 261.068 173.689 260.674 173.689Z" fill="white"/>
<path d="M252.817 186.629H251.516C251.121 186.629 250.801 186.948 250.801 187.343C250.801 187.737 251.121 188.057 251.516 188.057H252.817C253.211 188.057 253.531 187.737 253.531 187.343C253.531 186.948 253.211 186.629 252.817 186.629Z" fill="white"/>
<path d="M257.033 186.629H255.732C255.337 186.629 255.017 186.948 255.017 187.343C255.017 187.737 255.337 188.057 255.732 188.057H257.033C257.427 188.057 257.747 187.737 257.747 187.343C257.747 186.948 257.427 186.629 257.033 186.629Z" fill="white"/>
<path d="M268.61 186.748H260.523C260.129 186.748 259.809 187.067 259.809 187.462C259.809 187.856 260.129 188.176 260.523 188.176H268.61C269.004 188.176 269.324 187.856 269.324 187.462C269.324 187.067 269.004 186.748 268.61 186.748Z" fill="white"/>
<path d="M237.936 186.629H236.635C236.241 186.629 235.921 186.948 235.921 187.343C235.921 187.737 236.241 188.057 236.635 188.057H237.936C238.331 188.057 238.65 187.737 238.65 187.343C238.65 186.948 238.331 186.629 237.936 186.629Z" fill="white"/>
<path d="M248.769 186.748H240.683C240.288 186.748 239.968 187.067 239.968 187.462C239.968 187.856 240.288 188.176 240.683 188.176H248.769C249.164 188.176 249.483 187.856 249.483 187.462C249.483 187.067 249.164 186.748 248.769 186.748Z" fill="white"/>
<path d="M241.904 183.405H240.603C240.209 183.405 239.889 183.724 239.889 184.119C239.889 184.513 240.209 184.833 240.603 184.833H241.904C242.299 184.833 242.619 184.513 242.619 184.119C242.619 183.724 242.299 183.405 241.904 183.405Z" fill="white"/>
<path d="M256.785 183.405H255.484C255.089 183.405 254.769 183.724 254.769 184.119C254.769 184.513 255.089 184.833 255.484 184.833H256.785C257.179 184.833 257.499 184.513 257.499 184.119C257.499 183.724 257.179 183.405 256.785 183.405Z" fill="white"/>
<path d="M261.001 183.405H259.7C259.305 183.405 258.986 183.724 258.986 184.119C258.986 184.513 259.305 184.833 259.7 184.833H261.001C261.395 184.833 261.715 184.513 261.715 184.119C261.715 183.724 261.395 183.405 261.001 183.405Z" fill="white"/>
<path d="M252.737 183.524H244.651C244.256 183.524 243.937 183.843 243.937 184.238C243.937 184.632 244.256 184.952 244.651 184.952H252.737C253.132 184.952 253.452 184.632 253.452 184.238C253.452 183.843 253.132 183.524 252.737 183.524Z" fill="white"/>
<path d="M245.872 180.18H244.571C244.177 180.18 243.857 180.5 243.857 180.895C243.857 181.289 244.177 181.609 244.571 181.609H245.872C246.267 181.609 246.587 181.289 246.587 180.895C246.587 180.5 246.267 180.18 245.872 180.18Z" fill="white"/>
<path d="M260.753 180.18H259.452C259.057 180.18 258.738 180.5 258.738 180.895C258.738 181.289 259.057 181.609 259.452 181.609H260.753C261.147 181.609 261.467 181.289 261.467 180.895C261.467 180.5 261.147 180.18 260.753 180.18Z" fill="white"/>
<path d="M264.969 180.18H263.668C263.274 180.18 262.954 180.5 262.954 180.895C262.954 181.289 263.274 181.609 263.668 181.609H264.969C265.364 181.609 265.683 181.289 265.683 180.895C265.683 180.5 265.364 180.18 264.969 180.18Z" fill="white"/>
<path d="M256.705 180.299H248.619C248.224 180.299 247.905 180.619 247.905 181.014C247.905 181.408 248.224 181.728 248.619 181.728H256.705C257.1 181.728 257.42 181.408 257.42 181.014C257.42 180.619 257.1 180.299 256.705 180.299Z" fill="white"/>
<path d="M249.841 176.956H248.539C248.145 176.956 247.825 177.276 247.825 177.671C247.825 178.065 248.145 178.385 248.539 178.385H249.841C250.235 178.385 250.555 178.065 250.555 177.671C250.555 177.276 250.235 176.956 249.841 176.956Z" fill="white"/>
<path d="M264.721 176.956H263.42C263.025 176.956 262.706 177.276 262.706 177.671C262.706 178.065 263.025 178.385 263.42 178.385H264.721C265.116 178.385 265.435 178.065 265.435 177.671C265.435 177.276 265.116 176.956 264.721 176.956Z" fill="white"/>
<path d="M268.937 176.956H267.636C267.242 176.956 266.922 177.276 266.922 177.671C266.922 178.065 267.242 178.385 267.636 178.385H268.937C269.332 178.385 269.651 178.065 269.651 177.671C269.651 177.276 269.332 176.956 268.937 176.956Z" fill="white"/>
<path d="M260.674 177.075H252.587C252.193 177.075 251.873 177.395 251.873 177.79C251.873 178.184 252.193 178.504 252.587 178.504H260.674C261.068 178.504 261.388 178.184 261.388 177.79C261.388 177.395 261.068 177.075 260.674 177.075Z" fill="white"/>
<path d="M231.019 224.414L224.911 214.759L244.083 199.476L251.996 190.709C253.024 189.57 254.333 188.721 255.792 188.246C257.251 187.772 258.809 187.688 260.311 188.005C261.812 188.321 263.204 189.026 264.348 190.048C265.492 191.071 266.347 192.376 266.828 193.833C267.542 195.992 267.388 198.344 266.401 200.392C265.413 202.44 263.668 204.024 261.535 204.81L249.021 209.42L231.019 224.414Z" fill="#FFB6B6"/>
<path d="M87.7054 154.41V201.335H120.58V154.41C120.58 154.073 120.472 153.744 120.272 153.472C120.072 153.2 119.79 153 119.468 152.9C119.316 152.85 119.157 152.826 118.996 152.827H89.2931C89.0849 152.827 88.8786 152.867 88.6861 152.947C88.4936 153.026 88.3186 153.143 88.1712 153.29C88.0237 153.437 87.9067 153.611 87.8268 153.804C87.7469 153.996 87.7056 154.202 87.7054 154.41V154.41ZM100.535 170.534C100.543 169.609 100.917 168.725 101.574 168.073C102.231 167.422 103.119 167.057 104.044 167.057C104.969 167.057 105.857 167.422 106.514 168.073C107.171 168.725 107.545 169.609 107.553 170.534V175.979C107.549 176.906 107.177 177.794 106.519 178.449C105.862 179.103 104.972 179.47 104.044 179.47C103.116 179.47 102.227 179.103 101.569 178.449C100.911 177.794 100.54 176.906 100.535 175.979V170.534Z" fill="#2F2E41"/>
<path d="M87.6049 199.835V204.36C87.6056 204.594 87.6987 204.819 87.864 204.985C88.0294 205.151 88.2535 205.245 88.4879 205.247H119.797C120.032 205.246 120.256 205.152 120.422 204.986C120.587 204.819 120.68 204.594 120.68 204.36V199.835H87.6049Z" fill="#3F3D56"/>
<path d="M35.9899 83.7115V169.39C35.9907 170.482 36.4249 171.529 37.1969 172.301C37.969 173.073 39.0159 173.507 40.1077 173.508H167.074C168.166 173.507 169.213 173.073 169.985 172.301C170.757 171.529 171.191 170.482 171.192 169.39V83.7115C171.19 82.6206 170.755 81.5752 169.983 80.8043C169.211 80.0333 168.165 79.5997 167.074 79.5983H40.1077C39.0168 79.5997 37.9709 80.0333 37.1991 80.8043C36.4273 81.5752 35.9925 82.6206 35.9899 83.7115Z" fill="#3F3D56"/>
<path d="M38.9685 84.7776V168.333C38.9695 168.917 39.2017 169.476 39.6142 169.888C40.0267 170.301 40.5859 170.533 41.1693 170.534H166.018C166.601 170.533 167.16 170.301 167.573 169.888C167.985 169.476 168.217 168.917 168.218 168.333V84.7776C168.218 84.1935 167.987 83.6333 167.574 83.2199C167.161 82.8064 166.602 82.5735 166.018 82.5723H41.1693C40.5852 82.5735 40.0255 82.8064 39.6129 83.2199C39.2003 83.6333 38.9686 84.1935 38.9685 84.7776Z" fill="white"/>
<path d="M62.1382 204.941C62.2653 205.1 62.4268 205.229 62.6107 205.317C62.7945 205.405 62.9959 205.45 63.1997 205.449H137.476C137.68 205.448 137.88 205.403 138.063 205.315C138.247 205.228 138.408 205.101 138.536 204.943C138.664 204.785 138.755 204.601 138.803 204.403C138.851 204.206 138.854 204 138.812 203.802L137.659 198.325C137.612 198.101 137.509 197.894 137.36 197.72C137.211 197.547 137.022 197.413 136.808 197.332C136.654 197.271 136.489 197.24 136.323 197.24H64.3481C64.1822 197.24 64.0177 197.271 63.8632 197.332C63.6498 197.413 63.4601 197.547 63.3114 197.72C63.1628 197.894 63.0599 198.101 63.0121 198.325L61.8591 203.802C61.8181 204 61.8219 204.206 61.8702 204.403C61.9184 204.6 62.01 204.784 62.1382 204.941Z" fill="#2F2E41"/>
<path d="M161.966 94.0824H45.1458C45.0243 94.0797 44.9088 94.0296 44.8239 93.9428C44.7389 93.856 44.6914 93.7393 44.6914 93.6179C44.6914 93.4964 44.7389 93.3798 44.8239 93.293C44.9088 93.2061 45.0243 93.156 45.1458 93.1533H161.966C162.087 93.156 162.203 93.2061 162.288 93.293C162.373 93.3798 162.42 93.4964 162.42 93.6179C162.42 93.7393 162.373 93.856 162.288 93.9428C162.203 94.0296 162.087 94.0797 161.966 94.0824V94.0824Z" fill="#3F3D56"/>
<path d="M53.0979 90.7813C54.6015 90.7813 55.8205 89.5352 55.8205 87.9981C55.8205 86.4609 54.6015 85.2148 53.0979 85.2148C51.5943 85.2148 50.3754 86.4609 50.3754 87.9981C50.3754 89.5352 51.5943 90.7813 53.0979 90.7813Z" fill="#3F3D56"/>
<path d="M62.5031 90.7813C64.0067 90.7813 65.2256 89.5352 65.2256 87.9981C65.2256 86.4609 64.0067 85.2148 62.5031 85.2148C60.9994 85.2148 59.7805 86.4609 59.7805 87.9981C59.7805 89.5352 60.9994 90.7813 62.5031 90.7813Z" fill="#3F3D56"/>
<path d="M71.9082 90.7813C73.4118 90.7813 74.6308 89.5352 74.6308 87.9981C74.6308 86.4609 73.4118 85.2148 71.9082 85.2148C70.4046 85.2148 69.1857 86.4609 69.1857 87.9981C69.1857 89.5352 70.4046 90.7813 71.9082 90.7813Z" fill="#3F3D56"/>
<path d="M156.302 85.9032H149.622C149.49 85.9063 149.365 85.9609 149.272 86.0554C149.18 86.1498 149.128 86.2767 149.128 86.4088C149.128 86.5409 149.18 86.6677 149.272 86.7622C149.365 86.8567 149.49 86.9113 149.622 86.9144H156.302C156.435 86.9125 156.562 86.8584 156.655 86.7638C156.749 86.6692 156.801 86.5416 156.801 86.4088C156.801 86.2759 156.749 86.1484 156.655 86.0538C156.562 85.9592 156.435 85.9051 156.302 85.9032Z" fill="#3F3D56"/>
<path d="M156.302 87.802H149.622C149.49 87.8049 149.364 87.8595 149.272 87.954C149.18 88.0485 149.128 88.1754 149.128 88.3076C149.128 88.4398 149.18 88.5667 149.272 88.6612C149.364 88.7557 149.49 88.8102 149.622 88.8132H156.302C156.435 88.8116 156.562 88.7576 156.656 88.6629C156.749 88.5683 156.802 88.4406 156.802 88.3076C156.802 88.1745 156.749 88.0469 156.656 87.9522C156.562 87.8576 156.435 87.8036 156.302 87.802V87.802Z" fill="#3F3D56"/>
<path d="M156.302 89.7007H149.622C149.49 89.7038 149.365 89.7584 149.272 89.8529C149.18 89.9473 149.128 90.0742 149.128 90.2063C149.128 90.3384 149.18 90.4652 149.272 90.5597C149.365 90.6541 149.49 90.7088 149.622 90.7118H156.302C156.435 90.71 156.562 90.6559 156.655 90.5613C156.749 90.4667 156.801 90.3391 156.801 90.2063C156.801 90.0734 156.749 89.9459 156.655 89.8513C156.562 89.7566 156.435 89.7026 156.302 89.7007V89.7007Z" fill="#3F3D56"/>
<path d="M317.346 201.821C317.548 202.408 317.93 202.915 318.439 203.272C318.947 203.628 319.555 203.813 320.175 203.802L332.296 203.49C332.921 203.478 333.526 203.264 334.019 202.88C334.512 202.496 334.868 201.963 335.033 201.36L336.748 183.018C337.357 183.294 338.019 183.43 338.687 183.417C339.267 183.402 339.839 183.273 340.37 183.038C340.9 182.802 341.379 182.464 341.779 182.044C342.179 181.623 342.493 181.128 342.701 180.586C342.91 180.044 343.01 179.467 342.995 178.887C342.981 178.306 342.852 177.734 342.616 177.204C342.381 176.673 342.043 176.194 341.622 175.794C341.202 175.394 340.707 175.081 340.165 174.872C339.623 174.664 339.046 174.564 338.465 174.578C338.198 174.578 337.932 174.605 337.671 174.661C337.387 174.354 337.042 174.11 336.658 173.944C336.274 173.778 335.859 173.695 335.441 173.699L316.796 174.18C316.641 174.186 316.487 174.205 316.336 174.237C315.927 174.314 315.539 174.477 315.199 174.715C314.858 174.954 314.573 175.263 314.361 175.621C314.15 175.979 314.018 176.379 313.974 176.792C313.93 177.206 313.975 177.624 314.106 178.019L317.346 201.821ZM337.1 181.773L338.32 177.402C338.459 176.897 338.462 176.365 338.33 175.858C338.389 175.858 338.441 175.83 338.5 175.83C339.337 175.812 340.147 176.128 340.752 176.706C341.357 177.285 341.707 178.08 341.727 178.917C341.746 179.754 341.433 180.564 340.856 181.17C340.279 181.777 339.485 182.13 338.648 182.152C338.107 182.168 337.572 182.037 337.1 181.773Z" fill="#2F2E41"/>
<path d="M316.336 174.237C316.733 176.509 321.199 178.105 326.569 177.828C331.507 177.6 335.545 175.866 336.285 173.811C336.011 173.73 335.726 173.692 335.441 173.699L316.796 174.18C316.641 174.186 316.487 174.205 316.336 174.237V174.237Z" fill="#3F3D56"/>
<path d="M327.553 191.742C327.578 191.736 327.601 191.725 327.622 191.711L330.255 189.988C330.287 189.968 330.313 189.939 330.331 189.906C330.349 189.873 330.358 189.835 330.358 189.797C330.358 189.759 330.349 189.722 330.331 189.688C330.313 189.655 330.287 189.627 330.255 189.606L327.519 187.814C327.494 187.797 327.466 187.786 327.436 187.78C327.407 187.774 327.376 187.774 327.347 187.781C327.317 187.787 327.289 187.798 327.264 187.815C327.239 187.832 327.218 187.854 327.201 187.879C327.185 187.904 327.174 187.933 327.168 187.962C327.162 187.992 327.163 188.022 327.169 188.052C327.175 188.081 327.187 188.109 327.204 188.134C327.221 188.159 327.243 188.18 327.268 188.196L329.712 189.797L327.372 191.329C327.327 191.358 327.293 191.403 327.278 191.455C327.263 191.507 327.266 191.562 327.288 191.612C327.31 191.662 327.348 191.702 327.397 191.726C327.445 191.749 327.501 191.755 327.553 191.742H327.553Z" fill="#6C63FF"/>
<path d="M323.396 191.934C323.44 191.922 323.48 191.898 323.51 191.864C323.541 191.83 323.56 191.788 323.566 191.743C323.573 191.698 323.565 191.652 323.545 191.611C323.525 191.57 323.493 191.536 323.454 191.513L321.027 190.122L323.372 188.38C323.396 188.362 323.417 188.34 323.432 188.314C323.448 188.288 323.458 188.26 323.462 188.23C323.467 188.201 323.465 188.17 323.458 188.141C323.45 188.112 323.437 188.085 323.42 188.061C323.402 188.036 323.379 188.016 323.353 188.001C323.328 187.985 323.299 187.975 323.269 187.971C323.24 187.966 323.209 187.968 323.18 187.975C323.151 187.982 323.124 187.995 323.1 188.013L320.474 189.964C320.444 189.986 320.419 190.016 320.403 190.051C320.387 190.085 320.38 190.123 320.382 190.161C320.384 190.199 320.396 190.235 320.416 190.268C320.436 190.3 320.464 190.327 320.497 190.346L323.226 191.91C323.277 191.94 323.338 191.948 323.396 191.934V191.934Z" fill="#6C63FF"/>
<path d="M327.292 193.252C327.314 193.246 327.335 193.237 327.354 193.225C327.38 193.21 327.402 193.189 327.42 193.165C327.438 193.141 327.451 193.113 327.458 193.084C327.465 193.055 327.466 193.024 327.462 192.995C327.457 192.965 327.447 192.936 327.431 192.911L323.7 186.776C323.668 186.724 323.617 186.687 323.558 186.673C323.499 186.659 323.437 186.668 323.385 186.7C323.333 186.731 323.296 186.782 323.282 186.841C323.268 186.9 323.277 186.962 323.309 187.014L327.04 193.149C327.066 193.191 327.104 193.223 327.149 193.242C327.194 193.26 327.244 193.264 327.292 193.252Z" fill="#6C63FF"/>
<path d="M117.514 119.338H97.2949C96.47 119.338 95.8014 120.007 95.8014 120.832V122.807C95.8014 123.632 96.47 124.301 97.2949 124.301H117.514C118.339 124.301 119.007 123.632 119.007 122.807V120.832C119.007 120.007 118.339 119.338 117.514 119.338Z" fill="#6C63FF"/>
<path d="M129.299 129.263H85.5094C84.6845 129.263 84.0159 129.932 84.0159 130.756V132.732C84.0159 133.557 84.6845 134.225 85.5094 134.225H129.299C130.124 134.225 130.793 133.557 130.793 132.732V130.756C130.793 129.932 130.124 129.263 129.299 129.263Z" fill="#E6E6E6"/>
<path d="M129.299 139.188H85.5094C84.6845 139.188 84.0159 139.856 84.0159 140.681V142.656C84.0159 143.481 84.6845 144.15 85.5094 144.15H129.299C130.124 144.15 130.793 143.481 130.793 142.656V140.681C130.793 139.856 130.124 139.188 129.299 139.188Z" fill="#E6E6E6"/>
<path d="M133.011 172.421L133.111 172.734L133.116 172.745L136.101 181.822L139.536 192.281L145.997 211.938L146.06 214.991V215.002L146.54 239.564L145.209 242.894L146.707 248.354C146.707 248.354 146.018 240.101 142.323 244.84C140.23 247.534 137.782 250.289 135.773 252.873C138.701 254.058 141.676 255.13 144.698 256.088C145.35 256.297 146.008 256.495 146.666 256.694C146.806 256.735 146.947 256.777 147.088 256.819C157.106 259.782 167.462 261.446 177.904 261.772C178.447 261.788 178.979 261.798 179.496 261.809C179.679 261.814 179.856 261.819 180.033 261.819C180.618 261.824 181.197 261.83 181.782 261.83C182.962 261.83 184.136 261.812 185.305 261.777C193.959 261.534 202.562 260.37 210.969 258.307C210.912 254.836 210.755 250.78 210.531 246.448C210.426 244.324 208.083 242.022 207.942 239.798C207.843 238.128 209.946 236.557 209.836 234.861C209.127 224.417 208.239 228.426 207.582 221.03C207.514 220.304 207.451 219.61 207.394 218.947C206.971 214.198 206.679 211.228 206.679 211.228L209.487 193.529L213.897 165.74L213.558 165.182L213.177 164.994L189.914 153.48L188.651 150.244C188.283 149.312 187.644 148.511 186.817 147.944C185.99 147.378 185.013 147.072 184.011 147.065L168.686 147.003C167.891 146.999 167.106 147.185 166.397 147.546C165.689 147.906 165.076 148.43 164.61 149.075L160.461 154.821L133.011 172.421Z" fill="#3F3D56"/>
<path d="M149.531 207.564L146.06 214.991L143.69 220.064L139.614 241.407L137.573 243.573L135.825 235.905L117.524 239.968C116.924 236.633 117.364 240.081 116.993 236.422C117.097 236.318 117.207 236.213 117.317 236.109C117.609 235.837 117.854 235.582 117.849 235.336C117.64 222.716 118.266 201.238 123.496 188.226C124.315 186.101 125.395 184.087 126.712 182.229C126.816 182.088 126.915 181.947 127.014 181.806C129.426 178.429 130.95 175.104 133.111 172.74V172.734C133.124 172.724 133.136 172.711 133.147 172.698C133.155 172.694 133.162 172.689 133.168 172.682L148.012 164.811L148.649 182.704L149.103 195.564L149.531 207.564Z" fill="#3F3D56"/>
<path d="M203.056 209.673L207.392 218.95L208.905 222.181L212.98 243.521L215.014 245.682L216.767 238.016L217.59 237.847L232.441 234.771L236.77 248.518C237.745 246.893 238.13 244.98 237.858 243.104C237.586 241.228 236.675 239.503 235.278 238.221C234.982 237.954 234.736 237.693 234.743 237.447C234.989 222.603 234.081 195.498 225.881 184.342C223.277 180.802 221.715 177.276 219.441 174.812C219.434 174.805 219.434 174.798 219.427 174.798L213.895 165.74L213.557 165.184L213.177 164.994L203.056 209.673Z" fill="#3F3D56"/>
<path d="M176.791 142.642C188.051 142.642 197.178 133.514 197.178 122.254C197.178 110.995 188.051 101.867 176.791 101.867C165.532 101.867 156.404 110.995 156.404 122.254C156.404 133.514 165.532 142.642 176.791 142.642Z" fill="#FFB6B6"/>
<path d="M204.347 108.014C204.189 107.845 203.998 107.71 203.787 107.616C203.575 107.523 203.347 107.473 203.116 107.47L203.422 106.619C203.522 106.351 203.549 106.061 203.501 105.779C203.452 105.497 203.329 105.233 203.145 105.014C202.96 104.795 202.721 104.629 202.451 104.534C202.182 104.438 201.892 104.415 201.611 104.468L200.494 104.683L200.599 103.937C200.64 103.66 200.607 103.376 200.505 103.115C200.402 102.854 200.234 102.623 200.015 102.447C199.797 102.271 199.536 102.154 199.259 102.109C198.982 102.064 198.698 102.092 198.435 102.19C198.196 102.284 197.939 102.323 197.682 102.305C197.426 102.287 197.176 102.211 196.953 102.084C196.728 101.961 196.533 101.791 196.382 101.584C196.23 101.378 196.125 101.141 196.074 100.89L195.685 99.0143L195.644 98.9136C193.75 95.7566 190.108 93.4598 185.652 92.6179C181.685 91.863 177.617 92.2473 173.696 92.6088C172.141 92.7552 170.384 92.9199 168.919 93.8166C167.675 94.5853 166.623 96.1227 166.838 97.6737C162.972 96.4887 158.826 98.8541 156.772 101.837C154.338 105.388 153.94 109.835 153.876 113.312C153.702 121.539 155.399 128.269 158.909 133.32C159.165 133.687 159.229 134.451 159.737 134.707L159.631 134.538C160.199 134.821 160.775 135.279 160.56 135.768C159.943 137.178 164.047 140.293 166.938 141.323C172.214 143.203 179.228 143.043 184.16 142.366L184.334 141.199C186.114 140.957 187.367 140.495 187.72 139.772C188.342 139.241 188.873 138.765 189.335 138.326L189.339 138.321C189.349 138.312 189.367 138.298 189.376 138.289C191.604 136.153 192.121 134.936 192.355 133.083C192.579 131.266 192.181 129.422 191.774 127.761C200.348 129.088 188.397 118.629 196.385 116.607C196.477 116.578 196.57 116.555 196.665 116.538C196.898 116.483 197.131 116.428 197.355 116.364C198.436 116.071 199.471 115.629 200.43 115.051C202.663 113.692 203.4 111.889 204.553 109.858C204.719 109.569 204.789 109.234 204.752 108.902C204.715 108.571 204.573 108.26 204.347 108.014V108.014Z" fill="#2F2E41"/>
<path d="M248.897 211.125C248.892 211.925 248.883 213.046 248.847 214.433C248.842 214.625 248.838 214.822 248.833 215.023C248.774 217.571 248.714 219.708 248.618 222.083C248.613 222.248 248.609 222.408 248.6 222.572C248.472 225.885 248.27 229.742 247.923 235.85C247.277 247.133 246.152 237.401 245.022 241.359C244.967 241.556 244.907 241.789 244.852 242.064C244.681 243.06 244.393 244.032 243.992 244.96C243.393 245.317 242.775 245.66 242.167 246.003C240.433 246.968 238.671 247.897 236.896 248.78C235.898 249.274 234.896 249.759 233.89 250.226C233.73 250.299 233.574 250.372 233.419 250.441C228.264 252.825 222.952 254.852 217.519 256.508C216.458 256.828 215.401 257.139 214.33 257.428C213.214 257.739 212.097 258.032 210.967 258.306C202.56 260.37 193.957 261.534 185.304 261.779C184.137 261.815 182.961 261.829 181.781 261.829C181.195 261.829 180.619 261.825 180.033 261.82C179.855 261.82 179.676 261.815 179.498 261.811C178.981 261.797 178.445 261.788 177.905 261.774C167.464 261.449 157.108 259.783 147.09 256.819L146.665 256.696C146.006 256.494 145.352 256.297 144.697 256.087C141.678 255.131 138.702 254.06 135.771 252.875C133.533 251.974 131.322 251.007 129.137 249.974C129.117 249.969 129.098 249.96 129.082 249.947C128.624 249.736 128.162 249.517 127.704 249.293C127.645 249.261 127.581 249.229 127.517 249.197C125.81 248.364 124.122 247.491 122.452 246.579C121.047 243.354 119.071 242.736 117.844 239.899C117.488 239.057 117.23 238.175 117.076 237.273C117.076 237.264 117.071 237.255 117.071 237.241C117.199 238.943 116.527 234.221 117.067 237.223C117.062 237.168 117.058 237.108 117.053 237.04C117.039 236.875 117.021 236.674 116.993 236.422C115.424 221.099 115.525 203.575 114.843 189.136C114.797 188.202 114.75 187.308 114.701 186.454C114.688 186.171 114.669 185.892 114.651 185.617C114.683 185.535 114.72 185.448 114.761 185.365C114.769 185.342 114.78 185.319 114.793 185.297C114.806 185.268 114.821 185.241 114.838 185.214C114.848 185.201 114.861 185.182 114.871 185.169C114.877 185.153 114.885 185.138 114.893 185.123C114.935 185.059 114.98 184.99 115.031 184.926C115.054 184.899 115.072 184.876 115.095 184.853C115.11 184.83 115.129 184.808 115.15 184.789C115.164 184.767 115.181 184.747 115.2 184.729C115.218 184.711 115.237 184.688 115.259 184.665C115.269 184.651 115.282 184.639 115.296 184.629C115.332 184.587 115.372 184.549 115.415 184.514C115.578 184.364 115.753 184.227 115.937 184.103C116.001 184.061 116.069 184.02 116.133 183.975C116.594 183.699 117.08 183.466 117.584 183.279C117.758 183.215 117.931 183.156 118.119 183.091C118.188 183.073 118.252 183.05 118.32 183.027C118.421 182.995 118.522 182.963 118.627 182.94C119.148 182.785 119.711 182.652 120.32 182.529C120.393 182.515 120.471 182.501 120.549 182.483C120.658 182.46 120.773 182.442 120.887 182.423C121.043 182.396 121.203 182.369 121.363 182.341C122.722 182.126 124.264 181.966 125.966 181.861C126.126 181.852 126.286 181.842 126.446 181.833C126.634 181.824 126.821 181.815 127.014 181.806C127.174 181.797 127.338 181.792 127.503 181.787C127.663 181.778 127.828 181.774 127.997 181.769C128.459 181.755 128.935 181.742 129.42 181.733C130.802 181.705 132.257 181.714 133.785 181.746C134.494 181.765 135.217 181.783 135.958 181.815C136.009 181.815 136.055 181.819 136.1 181.819C136.745 181.842 137.395 181.87 138.063 181.906C138.53 181.929 139.001 181.952 139.472 181.98C139.916 182.007 140.364 182.035 140.817 182.067C141.17 182.085 141.522 182.112 141.879 182.135C142.181 182.158 142.483 182.181 142.785 182.199L143.197 182.227C143.421 182.245 143.645 182.259 143.874 182.282C144.377 182.323 144.88 182.364 145.393 182.405C145.901 182.451 146.418 182.497 146.935 182.542C147.452 182.588 147.973 182.638 148.495 182.689C148.55 182.693 148.6 182.698 148.651 182.703C149.126 182.753 149.602 182.799 150.083 182.849C150.192 182.858 150.307 182.867 150.417 182.881C150.875 182.927 151.342 182.981 151.804 183.03C151.946 183.045 152.087 183.06 152.229 183.076C152.591 183.115 152.948 183.149 153.313 183.192C153.793 183.247 154.283 183.297 154.759 183.361C155.129 183.403 155.5 183.444 155.87 183.49C156.451 183.558 157.042 183.631 157.632 183.709C157.856 183.737 158.08 183.764 158.305 183.796C159.988 184.007 161.69 184.24 163.42 184.482C166.041 184.853 168.704 185.256 171.386 185.69C174.071 186.125 176.772 186.584 179.489 187.067C180.175 187.191 180.861 187.315 181.552 187.443C181.863 187.502 182.174 187.562 182.485 187.621C183.016 187.717 183.547 187.818 184.078 187.918C184.608 188.019 185.139 188.12 185.67 188.225C186.301 188.349 186.937 188.472 187.569 188.596C191.728 189.419 195.864 190.298 199.899 191.217C200.563 191.368 201.226 191.524 201.885 191.675C203.203 191.981 204.508 192.293 205.802 192.608C206.158 192.691 206.511 192.778 206.863 192.864C207.741 193.084 208.62 193.304 209.485 193.528L209.636 193.569C210.272 193.725 210.894 193.885 211.516 194.049C212.985 194.434 214.429 194.823 215.849 195.216C216.792 195.477 217.723 195.741 218.645 196.008C220.022 196.406 221.372 196.808 222.685 197.216C223.01 197.316 223.334 197.417 223.655 197.513C224.615 197.81 225.563 198.112 226.482 198.414C227.214 198.652 227.928 198.895 228.633 199.137C229.337 199.38 230.028 199.622 230.705 199.865C231.14 200.02 231.57 200.185 232 200.341C232.618 200.569 233.226 200.798 233.821 201.027C234.004 201.096 234.183 201.169 234.361 201.237C234.475 201.288 234.585 201.329 234.695 201.375C234.91 201.462 235.13 201.544 235.34 201.631C235.555 201.713 235.766 201.8 235.976 201.892C236.182 201.974 236.393 202.061 236.594 202.148C236.8 202.23 237.001 202.317 237.202 202.409C237.372 202.477 237.536 202.551 237.696 202.624C238.021 202.766 238.346 202.907 238.662 203.054C238.817 203.127 238.973 203.196 239.129 203.269L239.485 203.434C239.536 203.461 239.586 203.484 239.636 203.507C239.751 203.562 239.87 203.621 239.984 203.676C240.25 203.8 240.51 203.932 240.767 204.056C241.11 204.23 241.444 204.404 241.764 204.573C242.089 204.747 242.405 204.921 242.707 205.09C242.757 205.117 242.803 205.145 242.853 205.172C242.922 205.209 242.99 205.25 243.059 205.287C243.292 205.419 243.516 205.557 243.741 205.689C244.18 205.959 244.596 206.225 244.985 206.49C245.072 206.549 245.154 206.609 245.241 206.664C245.53 206.87 245.804 207.071 246.06 207.277C246.06 207.281 246.06 207.281 246.065 207.281C246.152 207.345 246.234 207.414 246.317 207.478C246.385 207.542 246.458 207.597 246.527 207.661C246.765 207.867 246.985 208.064 247.186 208.265C247.253 208.327 247.317 208.393 247.378 208.462C247.405 208.484 247.429 208.508 247.451 208.535C247.543 208.627 247.625 208.718 247.703 208.81C247.715 208.822 247.726 208.836 247.735 208.851C247.845 208.979 247.945 209.107 248.041 209.235C248.087 209.299 248.138 209.363 248.179 209.427C248.234 209.505 248.288 209.587 248.334 209.665C248.375 209.729 248.412 209.798 248.449 209.862C248.546 210.027 248.628 210.2 248.696 210.379C248.747 210.5 248.788 210.626 248.819 210.754C248.854 210.876 248.88 211 248.897 211.125V211.125Z" fill="#2F2E41"/>
<path opacity="0.2" d="M248.897 211.125C248.893 211.926 248.883 213.046 248.847 214.433C248.842 214.625 248.833 214.822 248.829 215.023C248.783 216.968 248.714 219.37 248.618 222.083C248.613 222.248 248.609 222.408 248.6 222.572C248.472 225.885 248.27 229.742 247.923 235.85C247.277 247.133 246.152 237.401 245.022 241.359C241.883 239.428 238.442 237.406 234.764 235.329C234.1 234.953 233.431 234.577 232.755 234.198C225.398 230.094 217.181 225.793 208.602 221.534C208.263 221.365 207.92 221.195 207.581 221.03C187.93 211.317 166.481 201.869 149.104 195.564C145.75 194.347 142.547 193.249 139.536 192.283C133.195 190.256 127.714 188.838 123.495 188.225C119.103 187.584 116.069 187.813 114.843 189.136C114.797 188.202 114.75 187.308 114.701 186.454C114.683 186.171 114.665 185.892 114.646 185.617C114.675 185.542 114.711 185.47 114.747 185.397C114.752 185.387 114.756 185.376 114.761 185.365C114.77 185.342 114.78 185.319 114.793 185.297C114.806 185.268 114.822 185.241 114.839 185.214C114.853 185.182 114.872 185.151 114.893 185.123C114.935 185.059 114.98 184.99 115.031 184.926C115.068 184.878 115.107 184.832 115.15 184.789C115.164 184.767 115.181 184.747 115.2 184.729C115.218 184.711 115.237 184.688 115.259 184.665C115.269 184.651 115.282 184.639 115.296 184.629C115.332 184.587 115.372 184.549 115.415 184.514C115.578 184.364 115.753 184.227 115.937 184.103C116.001 184.061 116.069 184.02 116.133 183.974C116.594 183.699 117.08 183.466 117.584 183.279C117.758 183.215 117.931 183.155 118.119 183.091C118.188 183.073 118.252 183.05 118.32 183.027C118.421 182.995 118.522 182.963 118.627 182.94C119.149 182.785 119.711 182.652 120.32 182.529C120.503 182.492 120.695 182.455 120.887 182.423C121.043 182.396 121.203 182.369 121.363 182.341C122.722 182.126 124.264 181.966 125.966 181.861C126.126 181.852 126.286 181.842 126.446 181.833C126.634 181.824 126.821 181.815 127.014 181.806C127.174 181.797 127.338 181.792 127.503 181.787C127.663 181.778 127.828 181.774 127.997 181.769C128.459 181.755 128.935 181.742 129.42 181.733C130.802 181.71 132.257 181.719 133.785 181.751C134.494 181.765 135.217 181.787 135.958 181.819C136.004 181.819 136.055 181.824 136.1 181.824C136.745 181.842 137.4 181.874 138.063 181.906C138.53 181.929 139.001 181.952 139.472 181.98C139.916 182.007 140.365 182.035 140.818 182.067C141.17 182.085 141.522 182.112 141.879 182.135C142.181 182.158 142.483 182.181 142.785 182.199C143.146 182.227 143.508 182.254 143.874 182.282C144.377 182.323 144.88 182.364 145.393 182.405C145.901 182.451 146.418 182.497 146.935 182.542C147.452 182.588 147.973 182.638 148.495 182.689C148.55 182.693 148.6 182.698 148.651 182.703C149.126 182.753 149.602 182.799 150.083 182.849C152.746 183.119 155.486 183.435 158.305 183.796C159.988 184.011 161.693 184.241 163.42 184.487C166.042 184.858 168.704 185.26 171.386 185.69C174.071 186.125 176.772 186.584 179.489 187.067C180.175 187.191 180.861 187.315 181.552 187.443C182.394 187.598 183.236 187.757 184.078 187.918C184.608 188.019 185.139 188.12 185.67 188.225C186.301 188.349 186.937 188.472 187.569 188.596C191.728 189.419 195.864 190.298 199.899 191.217C200.563 191.368 201.226 191.524 201.885 191.675C203.203 191.981 204.508 192.293 205.802 192.608C206.159 192.695 206.511 192.782 206.863 192.869C207.746 193.089 208.62 193.308 209.485 193.528V193.532C209.535 193.542 209.585 193.555 209.636 193.569C210.267 193.729 210.894 193.889 211.516 194.054C212.985 194.438 214.429 194.826 215.849 195.216C216.792 195.482 217.725 195.742 218.645 196.008C220.022 196.41 221.372 196.813 222.685 197.216C223.01 197.316 223.334 197.417 223.655 197.513C224.616 197.815 225.558 198.115 226.482 198.414C227.214 198.652 227.928 198.895 228.633 199.137C229.337 199.38 230.028 199.622 230.705 199.865C231.145 200.02 231.575 200.18 232 200.336C232.623 200.565 233.226 200.794 233.821 201.027C234.004 201.096 234.183 201.169 234.361 201.237C234.695 201.366 235.02 201.498 235.34 201.631C235.555 201.713 235.766 201.8 235.976 201.892C236.182 201.974 236.393 202.061 236.594 202.148C236.8 202.23 237.001 202.317 237.202 202.409C237.372 202.477 237.536 202.551 237.697 202.624C238.021 202.766 238.346 202.907 238.662 203.054C238.818 203.127 238.973 203.196 239.129 203.269L239.486 203.434C239.536 203.461 239.586 203.484 239.637 203.507C240.025 203.69 240.401 203.873 240.767 204.056C241.11 204.23 241.444 204.404 241.764 204.573C242.144 204.774 242.505 204.971 242.853 205.172C242.922 205.209 242.99 205.25 243.059 205.287C243.292 205.419 243.516 205.557 243.741 205.689C244.18 205.959 244.596 206.225 244.985 206.49C245.37 206.755 245.726 207.016 246.06 207.277C246.06 207.281 246.06 207.281 246.065 207.281C246.225 207.41 246.381 207.538 246.527 207.661C246.765 207.867 246.985 208.064 247.186 208.265C247.253 208.327 247.318 208.393 247.378 208.462C247.405 208.484 247.429 208.508 247.451 208.535C247.547 208.64 247.643 208.746 247.735 208.851C247.845 208.979 247.945 209.107 248.042 209.235C248.087 209.299 248.138 209.363 248.179 209.427C248.234 209.505 248.289 209.587 248.334 209.665C248.376 209.729 248.412 209.798 248.449 209.862C248.546 210.027 248.629 210.2 248.696 210.379C248.746 210.501 248.787 210.626 248.819 210.754C248.854 210.876 248.88 211 248.897 211.125V211.125Z" fill="black"/>
</g>
<defs>
<clipPath id="clip0_83_93">
<rect width="360" height="261.83" fill="white"/>
</clipPath>
</defs>
</svg>
